grf
version=1
nRows=21
nColumns=46
inDegrees=yes
endheader
time	ground_force_1_vx	ground_force_1_vy	ground_force_1_vz	ground_force_1_px	ground_force_1_py	ground_force_1_pz	ground_moment_1_mx	ground_moment_1_my	ground_moment_1_mz	ground_force_2_vx	ground_force_2_vy	ground_force_2_vz	ground_force_2_px	ground_force_2_py	ground_force_2_pz	ground_moment_2_mx	ground_moment_2_my	ground_moment_2_mz	ground_force_3_vx	ground_force_3_vy	ground_force_3_vz	ground_force_3_px	ground_force_3_py	ground_force_3_pz	ground_moment_3_mx	ground_moment_3_my	ground_moment_3_mz	ground_force_4_vx	ground_force_4_vy	ground_force_4_vz	ground_force_4_px	ground_force_4_py	ground_force_4_pz	ground_moment_4_mx	ground_moment_4_my	ground_moment_4_mz	ground_force_5_vx	ground_force_5_vy	ground_force_5_vz	ground_force_5_px	ground_force_5_py	ground_force_5_pz	ground_moment_5_mx	ground_moment_5_my	ground_moment_5_mz
6.200000	0.000000	0.000000	0.000000	0.000000	0.000000	0.000000	0.000000	0.000000	0.000000	0.000000	0.000000	0.000000	0.000000	0.000000	0.000000	0.000000	0.000000	0.000000	0.000000	0.000000	0.000000	0.000000	0.000000	0.000000	0.000000	0.000000	0.000000	6.083456	546.302277	-81.738085	0.225152	0.000000	-1.065713	-0.000000	7.494259	0.000000	-4.625341	490.932236	82.045700	0.236892	0.000000	-1.406316	-0.000000	-7.545595	-0.000000
6.200500	0.000000	0.000000	0.000000	0.000000	0.000000	0.000000	0.000000	0.000000	0.000000	0.000000	0.000000	0.000000	0.000000	0.000000	0.000000	0.000000	0.000000	0.000000	0.000000	0.000000	0.000000	0.000000	0.000000	0.000000	0.000000	0.000000	0.000000	6.088978	546.273903	-81.744748	0.225166	0.000000	-1.065707	-0.000000	7.492041	0.000000	-4.619088	490.892886	82.041833	0.236907	0.000000	-1.406320	-0.000000	-7.545076	-0.000000
6.201000	0.000000	0.000000	0.000000	0.000000	0.000000	0.000000	0.000000	0.000000	0.000000	0.000000	0.000000	0.000000	0.000000	0.000000	0.000000	0.000000	0.000000	0.000000	0.000000	0.000000	0.000000	0.000000	0.000000	0.000000	0.000000	0.000000	0.000000	6.094147	546.246472	-81.751551	0.225180	0.000000	-1.065702	-0.000000	7.489872	0.000000	-4.613038	490.854523	82.037576	0.236922	0.000000	-1.406324	-0.000000	-7.544648	-0.000000
6.201500	0.000000	0.000000	0.000000	0.000000	0.000000	0.000000	0.000000	0.000000	0.000000	0.000000	0.000000	0.000000	0.000000	0.000000	0.000000	0.000000	0.000000	0.000000	0.000000	0.000000	0.000000	0.000000	0.000000	0.000000	0.000000	0.000000	0.000000	6.098973	546.220045	-81.758480	0.225194	0.000000	-1.065697	-0.000000	7.487754	0.000000	-4.607222	490.817221	82.032945	0.236937	0.000000	-1.406328	-0.000000	-7.544303	-0.000000
6.202000	0.000000	0.000000	0.000000	0.000000	0.000000	0.000000	0.000000	0.000000	0.000000	0.000000	0.000000	0.000000	0.000000	0.000000	0.000000	0.000000	0.000000	0.000000	0.000000	0.000000	0.000000	0.000000	0.000000	0.000000	0.000000	0.000000	0.000000	6.103462	546.194671	-81.765511	0.225207	0.000000	-1.065691	-0.000000	7.485686	0.000000	-4.601665	490.781038	82.027961	0.236951	0.000000	-1.406333	-0.000000	-7.544035	-0.000000
6.202500	0.000000	0.000000	0.000000	0.000000	0.000000	0.000000	0.000000	0.000000	0.000000	0.000000	0.000000	0.000000	0.000000	0.000000	0.000000	0.000000	0.000000	0.000000	0.000000	0.000000	0.000000	0.000000	0.000000	0.000000	0.000000	0.000000	0.000000	6.107614	546.170391	-81.772613	0.225221	0.000000	-1.065686	-0.000000	7.483670	0.000000	-4.596390	490.746013	82.022653	0.236966	0.000000	-1.406337	-0.000000	-7.543840	-0.000000
6.203000	0.000000	0.000000	0.000000	0.000000	0.000000	0.000000	0.000000	0.000000	0.000000	0.000000	0.000000	0.000000	0.000000	0.000000	0.000000	0.000000	0.000000	0.000000	0.000000	0.000000	0.000000	0.000000	0.000000	0.000000	0.000000	0.000000	0.000000	6.111428	546.147244	-81.779758	0.225234	0.000000	-1.065680	-0.000000	7.481708	0.000000	-4.591416	490.712164	82.017054	0.236980	0.000000	-1.406342	-0.000000	-7.543714	-0.000000
6.203500	0.000000	0.000000	0.000000	0.000000	0.000000	0.000000	0.000000	0.000000	0.000000	0.000000	0.000000	0.000000	0.000000	0.000000	0.000000	0.000000	0.000000	0.000000	0.000000	0.000000	0.000000	0.000000	0.000000	0.000000	0.000000	0.000000	0.000000	6.114895	546.125268	-81.786916	0.225248	0.000000	-1.065674	-0.000000	7.479801	0.000000	-4.586756	490.679498	82.011202	0.236994	0.000000	-1.406347	-0.000000	-7.543656	-0.000000
6.204000	0.000000	0.000000	0.000000	0.000000	0.000000	0.000000	0.000000	0.000000	0.000000	0.000000	0.000000	0.000000	0.000000	0.000000	0.000000	0.000000	0.000000	0.000000	0.000000	0.000000	0.000000	0.000000	0.000000	0.000000	0.000000	0.000000	0.000000	6.118006	546.104495	-81.794062	0.225261	0.000000	-1.065668	-0.000000	7.477948	0.000000	-4.582424	490.648018	82.005129	0.237008	0.000000	-1.406352	-0.000000	-7.543663	-0.000000
6.204500	0.000000	0.000000	0.000000	0.000000	0.000000	0.000000	0.000000	0.000000	0.000000	0.000000	0.000000	0.000000	0.000000	0.000000	0.000000	0.000000	0.000000	0.000000	0.000000	0.000000	0.000000	0.000000	0.000000	0.000000	0.000000	0.000000	0.000000	6.120747	546.084951	-81.801168	0.225274	0.000000	-1.065661	-0.000000	7.476151	0.000000	-4.578433	490.617722	81.998865	0.237021	0.000000	-1.406357	-0.000000	-7.543735	-0.000000
6.205000	0.000000	0.000000	0.000000	0.000000	0.000000	0.000000	0.000000	0.000000	0.000000	0.000000	0.000000	0.000000	0.000000	0.000000	0.000000	0.000000	0.000000	0.000000	0.000000	0.000000	0.000000	0.000000	0.000000	0.000000	0.000000	0.000000	0.000000	6.123104	546.066663	-81.808205	0.225287	0.000000	-1.065654	-0.000000	7.474410	0.000000	-4.574793	490.588611	81.992436	0.237034	0.000000	-1.406362	-0.000000	-7.543871	-0.000000
6.205500	0.000000	0.000000	0.000000	0.000000	0.000000	0.000000	0.000000	0.000000	0.000000	0.000000	0.000000	0.000000	0.000000	0.000000	0.000000	0.000000	0.000000	0.000000	0.000000	0.000000	0.000000	0.000000	0.000000	0.000000	0.000000	0.000000	0.000000	6.125064	546.049659	-81.815148	0.225300	0.000000	-1.065647	-0.000000	7.472726	0.000000	-4.571511	490.560684	81.985869	0.237048	0.000000	-1.406367	-0.000000	-7.544068	-0.000000
6.206000	0.000000	0.000000	0.000000	0.000000	0.000000	0.000000	0.000000	0.000000	0.000000	0.000000	0.000000	0.000000	0.000000	0.000000	0.000000	0.000000	0.000000	0.000000	0.000000	0.000000	0.000000	0.000000	0.000000	0.000000	0.000000	0.000000	0.000000	6.126611	546.033969	-81.821978	0.225313	0.000000	-1.065640	-0.000000	7.471101	0.000000	-4.568594	490.533950	81.979193	0.237060	0.000000	-1.406372	-0.000000	-7.544326	-0.000000
6.206500	0.000000	0.000000	0.000000	0.000000	0.000000	0.000000	0.000000	0.000000	0.000000	0.000000	0.000000	0.000000	0.000000	0.000000	0.000000	0.000000	0.000000	0.000000	0.000000	0.000000	0.000000	0.000000	0.000000	0.000000	0.000000	0.000000	0.000000	6.127735	546.019619	-81.828684	0.225326	0.000000	-1.065632	-0.000000	7.469537	0.000000	-4.566048	490.508425	81.972438	0.237073	0.000000	-1.406377	-0.000000	-7.544640	-0.000000
6.207000	0.000000	0.000000	0.000000	0.000000	0.000000	0.000000	0.000000	0.000000	0.000000	0.000000	0.000000	0.000000	0.000000	0.000000	0.000000	0.000000	0.000000	0.000000	0.000000	0.000000	0.000000	0.000000	0.000000	0.000000	0.000000	0.000000	0.000000	6.128427	546.006617	-81.835265	0.225338	0.000000	-1.065624	-0.000000	7.468037	0.000000	-4.563883	490.484134	81.965632	0.237085	0.000000	-1.406382	-0.000000	-7.545009	-0.000000
6.207500	0.000000	0.000000	0.000000	0.000000	0.000000	0.000000	0.000000	0.000000	0.000000	0.000000	0.000000	0.000000	0.000000	0.000000	0.000000	0.000000	0.000000	0.000000	0.000000	0.000000	0.000000	0.000000	0.000000	0.000000	0.000000	0.000000	0.000000	6.128686	545.994963	-81.841726	0.225351	0.000000	-1.065615	-0.000000	7.466605	0.000000	-4.562111	490.461096	81.958802	0.237097	0.000000	-1.406387	-0.000000	-7.545428	-0.000000
6.208000	0.000000	0.000000	0.000000	0.000000	0.000000	0.000000	0.000000	0.000000	0.000000	0.000000	0.000000	0.000000	0.000000	0.000000	0.000000	0.000000	0.000000	0.000000	0.000000	0.000000	0.000000	0.000000	0.000000	0.000000	0.000000	0.000000	0.000000	6.128509	545.984650	-81.848073	0.225363	0.000000	-1.065607	0.000000	7.465247	0.000000	-4.560749	490.439324	81.951976	0.237109	0.000000	-1.406392	-0.000000	-7.545894	-0.000000
6.208500	0.000000	0.000000	0.000000	0.000000	0.000000	0.000000	0.000000	0.000000	0.000000	0.000000	0.000000	0.000000	0.000000	0.000000	0.000000	0.000000	0.000000	0.000000	0.000000	0.000000	0.000000	0.000000	0.000000	0.000000	0.000000	0.000000	0.000000	6.127901	545.975666	-81.854312	0.225376	0.000000	-1.065597	0.000000	7.463965	0.000000	-4.559815	490.418811	81.945180	0.237121	0.000000	-1.406397	-0.000000	-7.546401	-0.000000
6.209000	0.000000	0.000000	0.000000	0.000000	0.000000	0.000000	0.000000	0.000000	0.000000	0.000000	0.000000	0.000000	0.000000	0.000000	0.000000	0.000000	0.000000	0.000000	0.000000	0.000000	0.000000	0.000000	0.000000	0.000000	0.000000	0.000000	0.000000	6.126866	545.967990	-81.860452	0.225388	0.000000	-1.065588	0.000000	7.462766	0.000000	-4.559331	490.399533	81.938443	0.237132	0.000000	-1.406401	-0.000000	-7.546944	-0.000000
6.209500	0.000000	0.000000	0.000000	0.000000	0.000000	0.000000	0.000000	0.000000	0.000000	0.000000	0.000000	0.000000	0.000000	0.000000	0.000000	0.000000	0.000000	0.000000	0.000000	0.000000	0.000000	0.000000	0.000000	0.000000	0.000000	0.000000	0.000000	6.125408	545.961584	-81.866501	0.225400	0.000000	-1.065578	0.000000	7.461654	0.000000	-4.559315	490.381453	81.931789	0.237142	0.000000	-1.406406	-0.000000	-7.547515	-0.000000
6.210000	0.000000	0.000000	0.000000	0.000000	0.000000	0.000000	0.000000	0.000000	0.000000	0.000000	0.000000	0.000000	0.000000	0.000000	0.000000	0.000000	0.000000	0.000000	0.000000	0.000000	0.000000	0.000000	0.000000	0.000000	0.000000	0.000000	0.000000	6.123528	545.956395	-81.872465	0.225412	0.000000	-1.065568	0.000000	7.460639	0.000000	-4.559787	490.364528	81.925236	0.237153	0.000000	-1.406410	-0.000000	-7.548110	-0.000000
